<svg width="406" height="109" viewBox="0 0 406 109" fill="none" xmlns="http://www.w3.org/2000/svg">
<path d="M48.0381 10H3.9619C1.77381 10 -1.59442e-06 11.8251 -1.59442e-06 14.0764V32.2505C-1.59442e-06 34.5019 1.77381 36.327 3.9619 36.327H25.9643C25.9643 36.3429 25.9644 36.3589 25.9646 36.3749L26.2709 63.1635H3.9619C1.77381 63.1635 -1.59442e-06 64.9886 -1.59442e-06 67.2399V85.9236C-1.59442e-06 88.1749 1.7738 90 3.9619 90H22.569C24.7753 90 26.5566 88.1456 26.5306 85.8756L26.2709 63.1635H48.0381C50.2262 63.1635 52 61.3384 52 59.087V40.4034C52 38.152 50.2262 36.327 48.0381 36.327H25.9643C25.9638 34.0789 27.7355 32.2505 29.9262 32.2505H48.0381C50.2262 32.2505 52 30.4254 52 28.1741V14.0764C52 11.8251 50.2262 10 48.0381 10Z" fill="#2563EB"/>
<path d="M104.81 37.9091V46.858H75.7898V37.9091H104.81ZM83.0447 87V33.2749C83.0447 29.9723 83.7266 27.2237 85.0902 25.0291C86.4751 22.8345 88.3288 21.1939 90.6513 20.1072C92.9737 19.0206 95.5518 18.4773 98.3857 18.4773C100.388 18.4773 102.168 18.6371 103.723 18.9567C105.278 19.2763 106.429 19.5639 107.175 19.8196L104.874 28.7685C104.384 28.6193 103.766 28.4702 103.02 28.321C102.274 28.1506 101.443 28.0653 100.527 28.0653C98.375 28.0653 96.8516 28.5874 95.9567 29.6314C95.0831 30.6541 94.6463 32.1243 94.6463 34.0419V87H83.0447ZM133.438 87.9588C128.644 87.9588 124.489 86.9041 120.974 84.7947C117.458 82.6854 114.731 79.7344 112.792 75.9418C110.874 72.1491 109.915 67.7173 109.915 62.6463C109.915 57.5753 110.874 53.1328 112.792 49.3189C114.731 45.505 117.458 42.5433 120.974 40.4339C124.489 38.3246 128.644 37.2699 133.438 37.2699C138.232 37.2699 142.387 38.3246 145.903 40.4339C149.418 42.5433 152.135 45.505 154.052 49.3189C155.991 53.1328 156.961 57.5753 156.961 62.6463C156.961 67.7173 155.991 72.1491 154.052 75.9418C152.135 79.7344 149.418 82.6854 145.903 84.7947C142.387 86.9041 138.232 87.9588 133.438 87.9588ZM133.502 78.6903C136.101 78.6903 138.275 77.9766 140.022 76.549C141.769 75.1001 143.069 73.1612 143.921 70.7322C144.795 68.3033 145.231 65.5973 145.231 62.6143C145.231 59.6101 144.795 56.8935 143.921 54.4645C143.069 52.0142 141.769 50.0646 140.022 48.6158C138.275 47.1669 136.101 46.4425 133.502 46.4425C130.839 46.4425 128.623 47.1669 126.854 48.6158C125.107 50.0646 123.797 52.0142 122.923 54.4645C122.071 56.8935 121.645 59.6101 121.645 62.6143C121.645 65.5973 122.071 68.3033 122.923 70.7322C123.797 73.1612 125.107 75.1001 126.854 76.549C128.623 77.9766 130.839 78.6903 133.502 78.6903ZM166.781 87V37.9091H177.999V46.0909H178.51C179.405 43.2571 180.939 41.0732 183.112 39.5391C185.307 37.9837 187.81 37.206 190.623 37.206C191.262 37.206 191.976 37.2379 192.764 37.3018C193.574 37.3445 194.245 37.419 194.778 37.5256V48.1683C194.288 47.9979 193.51 47.8487 192.445 47.7209C191.401 47.5717 190.388 47.4972 189.408 47.4972C187.299 47.4972 185.403 47.9553 183.719 48.8714C182.058 49.7663 180.747 51.0128 179.788 52.6108C178.83 54.2088 178.35 56.0518 178.35 58.1399V87H166.781ZM202.464 87V37.9091H213.522V46.2507H214.098C215.12 43.4382 216.814 41.2436 219.179 39.6669C221.544 38.0689 224.368 37.2699 227.649 37.2699C230.973 37.2699 233.775 38.0795 236.054 39.6989C238.355 41.2969 239.975 43.4808 240.912 46.2507H241.424C242.51 43.5234 244.343 41.3501 246.921 39.7308C249.52 38.0902 252.599 37.2699 256.157 37.2699C260.674 37.2699 264.36 38.6974 267.216 41.5526C270.071 44.4077 271.498 48.5732 271.498 54.049V87H259.897V55.8388C259.897 52.7919 259.087 50.5653 257.468 49.1591C255.848 47.7315 253.867 47.0178 251.523 47.0178C248.732 47.0178 246.548 47.8913 244.971 49.6385C243.416 51.3643 242.638 53.6122 242.638 56.3821V87H231.292V55.3594C231.292 52.8239 230.525 50.7997 228.991 49.2869C227.478 47.7741 225.497 47.0178 223.047 47.0178C221.385 47.0178 219.872 47.4439 218.508 48.2962C217.145 49.1271 216.058 50.3097 215.248 51.8438C214.439 53.3565 214.034 55.125 214.034 57.1491V87H202.464ZM283.236 87V37.9091H294.805V87H283.236ZM289.052 30.9418C287.22 30.9418 285.643 30.3345 284.322 29.12C283.001 27.8842 282.341 26.4034 282.341 24.6776C282.341 22.9304 283.001 21.4496 284.322 20.2351C285.643 18.9993 287.22 18.3814 289.052 18.3814C290.906 18.3814 292.483 18.9993 293.782 20.2351C295.104 21.4496 295.764 22.9304 295.764 24.6776C295.764 26.4034 295.104 27.8842 293.782 29.12C292.483 30.3345 290.906 30.9418 289.052 30.9418ZM331.567 37.9091V46.858H302.548V37.9091H331.567ZM309.803 87V33.2749C309.803 29.9723 310.484 27.2237 311.848 25.0291C313.233 22.8345 315.087 21.1939 317.409 20.1072C319.732 19.0206 322.31 18.4773 325.143 18.4773C327.146 18.4773 328.925 18.6371 330.481 18.9567C332.036 19.2763 333.187 19.5639 333.933 19.8196L331.631 28.7685C331.141 28.6193 330.523 28.4702 329.778 28.321C329.032 28.1506 328.201 28.0653 327.285 28.0653C325.133 28.0653 323.609 28.5874 322.714 29.6314C321.841 30.6541 321.404 32.1243 321.404 34.0419V87H309.803ZM340.628 87V37.9091H352.198V87H340.628ZM346.445 30.9418C344.613 30.9418 343.036 30.3345 341.715 29.12C340.394 27.8842 339.733 26.4034 339.733 24.6776C339.733 22.9304 340.394 21.4496 341.715 20.2351C343.036 18.9993 344.613 18.3814 346.445 18.3814C348.299 18.3814 349.875 18.9993 351.175 20.2351C352.496 21.4496 353.157 22.9304 353.157 24.6776C353.157 26.4034 352.496 27.8842 351.175 29.12C349.875 30.3345 348.299 30.9418 346.445 30.9418ZM375.665 21.5455V87H364.095V21.5455H375.665ZM399.131 21.5455V87H387.562V21.5455H399.131Z" fill="#2563EB"/>
</svg>
