<svg width="52" height="80" viewBox="0 0 52 80" fill="none" xmlns="http://www.w3.org/2000/svg">
<path d="M48.0381 0H3.9619C1.77381 0 -1.59442e-06 1.82508 -1.59442e-06 4.07643V22.2505C-1.59442e-06 24.5019 1.77381 26.327 3.9619 26.327H25.9643C25.9643 26.3429 25.9644 26.3589 25.9646 26.3749L26.2709 53.1635H3.9619C1.77381 53.1635 -1.59442e-06 54.9886 -1.59442e-06 57.2399V75.9236C-1.59442e-06 78.1749 1.7738 80 3.9619 80H22.569C24.7753 80 26.5566 78.1456 26.5306 75.8756L26.2709 53.1635H48.0381C50.2262 53.1635 52 51.3384 52 49.087V30.4034C52 28.152 50.2262 26.327 48.0381 26.327H25.9643C25.9638 24.0789 27.7355 22.2505 29.9262 22.2505H48.0381C50.2262 22.2505 52 20.4254 52 18.1741V4.07643C52 1.82508 50.2262 0 48.0381 0Z" fill="#2563EB"/>
</svg>
